<?xml version="1.0" standalone="no"?>
<!DOCTYPE svg PUBLIC "-//W3C//DTD SVG 20010904//EN"
 "http://www.w3.org/TR/2001/REC-SVG-20010904/DTD/svg10.dtd">
<svg version="1.0" xmlns="http://www.w3.org/2000/svg"
 width="514.000000pt" height="514.000000pt" viewBox="0 0 514.000000 514.000000"
 preserveAspectRatio="xMidYMid meet">
<metadata>
Created by potrace 1.11, written by Peter Selinger 2001-2013
</metadata>
<g transform="translate(0.000000,514.000000) scale(0.100000,-0.100000)"
fill="#000000" stroke="none">
<path d="M370 4585 c-177 -48 -309 -181 -356 -360 -19 -72 -11 -225 15 -295
73 -192 251 -315 461 -319 174 -4 328 78 422 223 127 197 99 457 -67 621 -126
124 -310 174 -475 130z"/>
<path d="M577 3503 c-1 0 -22 -3 -47 -6 -124 -14 -227 -64 -320 -157 -111
-111 -161 -237 -156 -389 3 -72 9 -91 88 -277 311 -723 445 -1026 475 -1071
65 -99 161 -167 283 -204 36 -11 197 -14 783 -15 l738 -1 41 -39 c22 -21 68
-66 103 -99 34 -33 156 -150 271 -261 115 -110 252 -242 304 -293 119 -115
190 -153 289 -156 84 -3 159 8 208 31 129 62 187 247 131 421 -20 63 -29 76
-132 178 -61 61 -176 171 -255 245 -79 74 -167 158 -196 185 -29 28 -84 79
-122 114 -37 35 -129 121 -203 191 -137 130 -185 163 -255 176 -22 4 -272 7
-557 7 l-517 0 -12 31 c-7 17 -23 54 -35 81 -12 28 -78 178 -147 335 -69 157
-132 301 -140 320 -40 91 -47 109 -47 117 0 4 341 7 757 7 854 -2 819 -5 898
71 55 54 76 95 82 161 8 82 -12 146 -63 204 -49 53 -85 76 -143 86 -29 6
-2099 13 -2104 7z"/>
<path d="M3304 3372 c-116 -3 -129 -14 -129 -108 0 -53 4 -67 23 -86 l23 -23
927 -1 c530 0 935 3 945 9 44 21 57 131 22 183 -11 17 -25 24 -48 25 -148 2
-1693 3 -1763 1z"/>
</g>
</svg>
